 http://www.imdb.com/title/tt1261041/
 
http://www.222themovie.com/

User Rating:8.0/10 - 36 votes

Crime

Director:Phillip Guzman

Cast:Val Kilmer/Mick Rossi/Robert Miano/Aaron Gallagher, and others.

Plot:
The plan was easy; the job was not. On a snowy night a tight crew of four criminals plan to pull off a routine heist. When things go horribly wrong, friendship, loyalty and trust are pushed to the limit..

Info:

General
Complete name                    : 2;22-AC3-5,1-DVDRip[Eng]2008.avi
Format                           : AVI
Format/Info                      : Audio Video Interleave
File size                        : 1.39 GiB
Duration                         : 1h 44mn
Overall bit rate                 : 1 901 Kbps
Writing application              : VirtualDubMod 1.5.4.1 (build 2178/release)
Writing library                  : VirtualDubMod build 2178/release

Video
Format                           : MPEG-4 Visual
Format profile                   : Streaming Video@L1
Format settings, BVOP            : Yes
Format settings, QPel            : No
Format settings, GMC             : No warppoints
Format settings, Matrix          : Default
Muxing mode                      : Packed bitstream
Codec ID                         : XVID
Codec ID/Hint                    : XviD
Duration                         : 1h 44mn
Bit rate                         : 1 510 Kbps
Width                            : 704 pixels
Height                           : 400 pixels
Display aspect ratio             : 16/9
Frame rate                       : 25.000 fps
Resolution                       : 24 bits
Colorimetry                      : 4:2:0
Scan type                        : Progressive
Bits/(Pixel*Frame)               : 0.214
Stream size                      : 1.10 GiB (79%)
Writing library                  : XviD 50

Audio
Format                           : AC-3
Format/Info                      : Audio Coding 3
Codec ID                         : 2000
Duration                         : 1h 44mn
Bit rate mode                    : Constant
Bit rate                         : 384 Kbps
Channel(s)                       : 6 channels
Channel positions                : Front: L C R, Surround: L R, LFE
Sampling rate                    : 48.0 KHz
Stream size                      : 287 MiB (20%)
Alignment                        : Split accross interleaves
Interleave, duration             : 80 ms (2.00 video frames)
Interleave, preload duration     : 500 ms
Language                         : English

Enjoy...